<svg width="546" height="93" viewBox="0 0 546 93" fill="none" xmlns="http://www.w3.org/2000/svg">
<path d="M0 0H237C285 7.85065 251.5 62.5032 316.5 93H0V0Z" fill="white"/>
<rect x="3.5" y="3.5" width="539" height="86" rx="6.5" stroke="white" stroke-width="7"/>
<path d="M162.513 60.916V68H139.051V60.916H162.513ZM142.018 23.9219V68H132.936V23.9219H142.018ZM159.455 41.874V48.7764H139.051V41.874H159.455ZM162.482 23.9219V31.0361H139.051V23.9219H162.482ZM184.945 60.6133V46.0215C184.945 44.972 184.774 44.0739 184.431 43.3271C184.088 42.5602 183.553 41.9648 182.826 41.541C182.12 41.1172 181.201 40.9053 180.071 40.9053C179.103 40.9053 178.265 41.0768 177.559 41.4199C176.852 41.7428 176.307 42.2171 175.924 42.8428C175.54 43.4482 175.349 44.1647 175.349 44.9922H166.63C166.63 43.5996 166.953 42.2777 167.599 41.0264C168.244 39.7751 169.183 38.6751 170.414 37.7266C171.645 36.7578 173.108 36.001 174.804 35.4561C176.519 34.9111 178.437 34.6387 180.556 34.6387C183.099 34.6387 185.359 35.0625 187.337 35.9102C189.315 36.7578 190.869 38.0293 191.999 39.7246C193.149 41.4199 193.725 43.5391 193.725 46.082V60.0986C193.725 61.8949 193.836 63.3682 194.058 64.5186C194.28 65.6488 194.603 66.6377 195.026 67.4854V68H186.217C185.793 67.112 185.47 66.002 185.248 64.6699C185.046 63.3177 184.945 61.9655 184.945 60.6133ZM186.096 48.0498L186.156 52.9844H181.282C180.132 52.9844 179.133 53.1156 178.285 53.3779C177.438 53.6403 176.741 54.0137 176.196 54.498C175.651 54.9622 175.248 55.5072 174.985 56.1328C174.743 56.7585 174.622 57.4447 174.622 58.1914C174.622 58.9382 174.794 59.6143 175.137 60.2197C175.48 60.805 175.974 61.2692 176.62 61.6123C177.266 61.9352 178.023 62.0967 178.891 62.0967C180.202 62.0967 181.343 61.8343 182.312 61.3096C183.28 60.7848 184.027 60.139 184.552 59.3721C185.097 58.6051 185.379 57.8786 185.399 57.1924L187.7 60.8857C187.377 61.7132 186.933 62.571 186.368 63.459C185.823 64.347 185.127 65.1846 184.279 65.9717C183.432 66.7386 182.412 67.3743 181.222 67.8789C180.031 68.3633 178.618 68.6055 176.983 68.6055C174.905 68.6055 173.018 68.1917 171.322 67.3643C169.647 66.5166 168.315 65.3561 167.326 63.8828C166.357 62.3893 165.873 60.694 165.873 58.7969C165.873 57.0814 166.196 55.5576 166.842 54.2256C167.488 52.8936 168.436 51.7734 169.688 50.8652C170.959 49.9368 172.543 49.2406 174.44 48.7764C176.338 48.292 178.537 48.0498 181.04 48.0498H186.096ZM218.155 58.9482C218.155 58.3226 217.974 57.7575 217.61 57.2529C217.247 56.7484 216.571 56.2842 215.582 55.8604C214.613 55.4163 213.211 55.0127 211.374 54.6494C209.719 54.2861 208.175 53.832 206.742 53.2871C205.329 52.722 204.098 52.0459 203.049 51.2588C202.02 50.4717 201.212 49.5433 200.627 48.4736C200.042 47.3838 199.749 46.1426 199.749 44.75C199.749 43.3776 200.042 42.0859 200.627 40.875C201.232 39.6641 202.09 38.5944 203.2 37.666C204.33 36.7174 205.703 35.9808 207.317 35.4561C208.952 34.9111 210.789 34.6387 212.827 34.6387C215.673 34.6387 218.115 35.0928 220.153 36.001C222.212 36.9092 223.786 38.1605 224.876 39.7549C225.986 41.3291 226.541 43.1253 226.541 45.1436H217.822C217.822 44.2959 217.641 43.5391 217.277 42.873C216.934 42.1868 216.389 41.652 215.643 41.2686C214.916 40.8649 213.967 40.6631 212.797 40.6631C211.828 40.6631 210.991 40.8346 210.284 41.1777C209.578 41.5007 209.033 41.9447 208.649 42.5098C208.286 43.0547 208.104 43.6602 208.104 44.3262C208.104 44.8307 208.205 45.2848 208.407 45.6885C208.629 46.0719 208.982 46.4251 209.467 46.748C209.951 47.071 210.577 47.3737 211.344 47.6562C212.131 47.9186 213.1 48.1608 214.25 48.3828C216.611 48.8672 218.72 49.5029 220.577 50.29C222.434 51.057 223.907 52.1064 224.997 53.4385C226.087 54.7503 226.632 56.4759 226.632 58.6152C226.632 60.0684 226.309 61.4004 225.663 62.6113C225.017 63.8223 224.089 64.8818 222.878 65.79C221.667 66.6781 220.214 67.3743 218.519 67.8789C216.843 68.3633 214.956 68.6055 212.857 68.6055C209.81 68.6055 207.227 68.0605 205.107 66.9707C203.008 65.8809 201.414 64.4984 200.324 62.8232C199.255 61.1279 198.72 59.3923 198.72 57.6162H206.984C207.025 58.807 207.327 59.7656 207.893 60.4922C208.478 61.2188 209.215 61.7435 210.103 62.0664C211.011 62.3893 211.99 62.5508 213.039 62.5508C214.169 62.5508 215.108 62.3994 215.854 62.0967C216.601 61.7738 217.166 61.3499 217.55 60.8252C217.953 60.2803 218.155 59.6546 218.155 58.9482ZM242.011 64.3066L250.699 35.2441H260.054L246.885 72.9346C246.602 73.762 246.219 74.6501 245.734 75.5986C245.27 76.5472 244.634 77.4453 243.827 78.293C243.04 79.1608 242.041 79.8672 240.83 80.4121C239.639 80.957 238.176 81.2295 236.44 81.2295C235.613 81.2295 234.937 81.179 234.412 81.0781C233.887 80.9772 233.262 80.8359 232.535 80.6543V74.2666C232.757 74.2666 232.989 74.2666 233.231 74.2666C233.474 74.2868 233.706 74.2969 233.928 74.2969C235.078 74.2969 236.017 74.1657 236.743 73.9033C237.47 73.641 238.055 73.2373 238.499 72.6924C238.943 72.1676 239.296 71.4814 239.559 70.6338L242.011 64.3066ZM238.378 35.2441L245.492 58.9785L246.733 68.2119L240.8 68.8477L229.023 35.2441H238.378Z" fill="#2A719D"/>
<path d="M304.041 23.9219V68H294.959V23.9219H304.041ZM321.6 42.752V49.8359H301.559V42.752H321.6ZM323.719 23.9219V31.0361H301.559V23.9219H323.719ZM337.645 21.5V68H328.896V21.5H337.645ZM354.053 35.2441V68H345.304V35.2441H354.053ZM344.759 26.707C344.759 25.4355 345.203 24.3861 346.091 23.5586C346.979 22.7311 348.17 22.3174 349.663 22.3174C351.136 22.3174 352.317 22.7311 353.205 23.5586C354.113 24.3861 354.567 25.4355 354.567 26.707C354.567 27.9785 354.113 29.028 353.205 29.8555C352.317 30.6829 351.136 31.0967 349.663 31.0967C348.17 31.0967 346.979 30.6829 346.091 29.8555C345.203 29.028 344.759 27.9785 344.759 26.707ZM381.995 35.2441H389.896V66.9102C389.896 69.8971 389.23 72.43 387.898 74.5088C386.587 76.6077 384.75 78.1921 382.389 79.2617C380.027 80.3516 377.283 80.8965 374.154 80.8965C372.782 80.8965 371.329 80.7148 369.795 80.3516C368.281 79.9883 366.828 79.4232 365.436 78.6562C364.063 77.8893 362.913 76.9206 361.984 75.75L365.829 70.6035C366.838 71.7741 368.009 72.6823 369.341 73.3281C370.673 73.9941 372.146 74.3271 373.761 74.3271C375.335 74.3271 376.667 74.0345 377.757 73.4492C378.847 72.8841 379.684 72.0465 380.27 70.9365C380.855 69.8467 381.147 68.5247 381.147 66.9707V42.8125L381.995 35.2441ZM359.956 52.0156V51.3799C359.956 48.8773 360.259 46.6068 360.864 44.5684C361.49 42.5098 362.368 40.7438 363.498 39.2705C364.648 37.7972 366.041 36.6569 367.676 35.8496C369.311 35.0423 371.157 34.6387 373.216 34.6387C375.396 34.6387 377.222 35.0423 378.695 35.8496C380.169 36.6569 381.38 37.8073 382.328 39.3008C383.277 40.7741 384.013 42.5199 384.538 44.5381C385.083 46.5361 385.507 48.7259 385.81 51.1074V52.5C385.507 54.7806 385.053 56.8997 384.447 58.8574C383.842 60.8151 383.045 62.5306 382.056 64.0039C381.067 65.457 379.836 66.5872 378.362 67.3945C376.909 68.2018 375.174 68.6055 373.155 68.6055C371.137 68.6055 369.311 68.1917 367.676 67.3643C366.061 66.5368 364.679 65.3763 363.528 63.8828C362.378 62.3893 361.49 60.6335 360.864 58.6152C360.259 56.597 359.956 54.3971 359.956 52.0156ZM368.675 51.3799V52.0156C368.675 53.3678 368.806 54.6292 369.068 55.7998C369.331 56.9704 369.734 58.0098 370.279 58.918C370.844 59.806 371.541 60.5023 372.368 61.0068C373.216 61.4912 374.215 61.7334 375.365 61.7334C376.96 61.7334 378.261 61.4004 379.271 60.7344C380.28 60.0482 381.036 59.1097 381.541 57.9189C382.046 56.7282 382.338 55.3558 382.419 53.8018V49.8359C382.379 48.5645 382.207 47.4242 381.904 46.415C381.602 45.3857 381.178 44.5078 380.633 43.7812C380.088 43.0547 379.382 42.4896 378.514 42.0859C377.646 41.6823 376.617 41.4805 375.426 41.4805C374.275 41.4805 373.276 41.7428 372.429 42.2676C371.601 42.7721 370.905 43.4684 370.34 44.3564C369.795 45.2445 369.381 46.2939 369.099 47.5049C368.816 48.6956 368.675 49.9873 368.675 51.3799ZM405.185 21.5V68H396.466V21.5H405.185ZM403.943 50.4717H401.552C401.572 48.1911 401.875 46.0921 402.46 44.1748C403.045 42.2373 403.883 40.5622 404.973 39.1494C406.062 37.7165 407.364 36.6064 408.878 35.8193C410.412 35.0322 412.107 34.6387 413.964 34.6387C415.578 34.6387 417.042 34.8708 418.354 35.335C419.686 35.779 420.826 36.5055 421.774 37.5146C422.743 38.5036 423.49 39.8053 424.015 41.4199C424.539 43.0345 424.802 44.9922 424.802 47.293V68H416.022V47.2324C416.022 45.7793 415.811 44.639 415.387 43.8115C414.983 42.9639 414.388 42.3685 413.601 42.0254C412.834 41.6621 411.885 41.4805 410.755 41.4805C409.504 41.4805 408.434 41.7126 407.546 42.1768C406.678 42.641 405.982 43.2868 405.457 44.1143C404.932 44.9215 404.549 45.8701 404.307 46.96C404.064 48.0498 403.943 49.2204 403.943 50.4717ZM447.477 35.2441V41.4199H428.404V35.2441H447.477ZM433.127 27.1611H441.846V58.1309C441.846 59.0794 441.967 59.806 442.209 60.3105C442.471 60.8151 442.855 61.1683 443.359 61.3701C443.864 61.5518 444.5 61.6426 445.267 61.6426C445.812 61.6426 446.296 61.6224 446.72 61.582C447.164 61.5215 447.537 61.4609 447.84 61.4004L447.87 67.8184C447.123 68.0605 446.316 68.2523 445.448 68.3936C444.58 68.5348 443.622 68.6055 442.572 68.6055C440.655 68.6055 438.98 68.2926 437.547 67.667C436.134 67.0212 435.044 65.9919 434.277 64.5791C433.51 63.1663 433.127 61.3096 433.127 59.0088V27.1611Z" fill="white"/>
</svg>
